<svg width="35" height="35" viewBox="0 0 35 35" fill="none" xmlns="http://www.w3.org/2000/svg">
<path d="M10.6204 22.8451C11.244 22.8451 11.8303 22.6024 12.2707 22.1614C12.5729 21.8598 12.7648 21.4929 12.8663 21.1073L14.0919 22.3323C14.5324 22.7733 15.1186 23.016 15.7416 23.016C16.3652 23.016 16.9509 22.7733 17.3912 22.3323C17.8322 21.8919 18.0749 21.3056 18.0749 20.6827C18.0749 20.0591 17.8322 19.4734 17.3912 19.0324L16.3383 17.9795C16.7314 17.8756 17.0954 17.6785 17.3912 17.3827C17.8322 16.9417 18.0749 16.356 18.0749 15.7324C18.0749 15.1094 17.8322 14.5232 17.3912 14.0828L15.9253 12.6169C16.3191 12.513 16.6831 12.3159 16.9788 12.0201C17.4198 11.5797 17.6625 10.994 17.6625 10.3705C17.6625 9.74689 17.4198 9.16118 16.9788 8.72081L12.8418 4.58322V0.583311C12.8418 0.261338 12.5805 0 12.2585 0C11.9366 0 11.6752 0.261338 11.6752 0.583311V3.68662C10.83 3.35761 9.80211 3.52331 9.14183 4.18305C8.4179 4.90813 8.28023 5.9902 8.70959 6.86171C8.25692 6.94162 7.82646 7.14813 7.49157 7.48351C6.7729 8.20278 6.63174 9.27432 7.04942 10.143C6.59503 10.2298 6.17619 10.4486 5.84192 10.7829C5.12325 11.5021 4.98148 12.5743 5.39977 13.4429C4.94477 13.5298 4.52655 13.7485 4.19227 14.0828C3.75128 14.5232 3.50861 15.1095 3.50861 15.7324C3.50861 16.356 3.75128 16.9417 4.19227 17.3827L8.97093 22.1614C9.41123 22.6024 9.99748 22.8451 10.6204 22.8451ZM9.96652 5.00794C10.187 4.78803 10.4798 4.66669 10.7913 4.66669C11.1034 4.66669 11.3963 4.78803 11.6168 5.00794L11.8461 5.23722L16.154 9.5457C16.3745 9.76623 16.4958 10.059 16.4958 10.3705C16.4958 10.682 16.3745 10.9749 16.154 11.1954C15.713 11.6358 14.9447 11.6358 14.5043 11.1954L9.96658 6.6582C9.51213 6.20314 9.51213 5.46294 9.96652 5.00794ZM8.31625 8.3084C8.53678 8.08787 8.83018 7.96653 9.14169 7.96653C9.45321 7.96653 9.74606 8.08787 9.96652 8.3084L16.5663 14.9077C16.7869 15.1282 16.9081 15.421 16.9081 15.7325C16.9081 16.0446 16.7868 16.3374 16.5663 16.5579C16.1259 16.9984 15.3571 16.9984 14.9167 16.5579L12.35 13.9913L9.14169 10.7829C9.14108 10.7823 9.14108 10.7823 9.14053 10.7818L8.31625 9.95812C7.86187 9.50312 7.86187 8.76285 8.31625 8.3084ZM6.6666 11.6078C6.88713 11.3879 7.17991 11.2665 7.49204 11.2665C7.80294 11.2665 8.09579 11.3872 8.31571 11.6066L11.5252 14.8161L16.5663 19.8579C16.7869 20.0778 16.9081 20.3706 16.9081 20.6827C16.9081 20.9942 16.7868 21.287 16.5663 21.5075C16.1259 21.9479 15.3571 21.9479 14.9167 21.5075L12.2719 18.8632C12.2719 18.8626 12.2713 18.8621 12.2707 18.8614L9.88134 16.4721L6.66715 13.2579C6.21222 12.803 6.21222 12.0628 6.6666 11.6078ZM4.67509 15.7325C4.67509 15.421 4.79643 15.1281 5.01696 14.9077C5.23748 14.6878 5.53027 14.5664 5.84178 14.5664C6.15384 14.5664 6.44669 14.6878 6.6666 14.9077L7.00321 15.2443L11.4477 19.6887C11.9003 20.1437 11.9003 20.8822 11.4459 21.3367C11.0054 21.7771 10.2366 21.7777 9.79562 21.3367L5.01696 16.558C4.79643 16.3374 4.67509 16.0446 4.67509 15.7325Z" fill="white"/>
<path d="M29.1582 14.5833C29.1582 14.9053 29.4189 15.1666 29.7415 15.1666C30.0635 15.1666 30.3248 14.9053 30.3248 14.5833C30.3248 10.367 28.5649 7.88197 27.5131 6.39741C27.2063 5.96401 26.8249 5.425 26.8249 5.25V0.583311C26.8249 0.261338 26.5635 0 26.2416 0C25.919 0 25.6583 0.261338 25.6583 0.583311V5.25C25.6583 5.79599 26.0368 6.33151 26.5618 7.07178C27.5954 8.53187 29.1582 10.738 29.1582 14.5833Z" fill="white"/>
<path d="M12.2585 32.6667C11.9365 32.6667 11.6752 32.928 11.6752 33.25V34.4167C11.6752 34.7387 11.9365 35 12.2585 35C12.5805 35 12.8418 34.7387 12.8418 34.4167V33.25C12.8418 32.928 12.5805 32.6667 12.2585 32.6667Z" fill="white"/>
<path d="M27.7313 15.2646C26.3594 14.35 22.0503 11.851 21.8356 11.7279C21.446 11.5336 21.0131 11.5605 20.6176 11.8055C19.7647 12.3322 19.2415 13.7783 19.2415 14.5833C19.2415 15.7039 20.0279 16.3852 20.8609 17.1063C21.1496 17.3559 21.4477 17.6149 21.7458 17.9124L24.6625 20.8291C24.8556 21.0228 25.0381 21.2054 25.0632 21.2602C25.0737 21.2929 25.0749 21.4171 25.0749 21.539C24.9372 21.9077 23.8598 23.1396 22.9323 24.0683L16.4976 29.9191C16.3278 30.086 15.9696 30.3333 15.7416 30.3333H10.4916C9.84818 30.3333 9.32489 29.8101 9.32489 29.1666C9.32489 28.5232 9.84812 27.9999 10.4916 27.9999H14.5749C15.3764 27.9999 16.0764 27.3227 16.154 27.2457L20.2373 23.1623C20.4648 22.9343 20.4648 22.5656 20.2373 22.3375C20.0092 22.1094 19.64 22.1094 19.4125 22.3375L15.3309 26.4191C15.1611 26.586 14.8029 26.8333 14.5749 26.8333H10.4916H8.74158C8.09818 26.8333 7.57489 26.3101 7.57489 25.6666C7.57489 25.0232 8.09812 24.4999 8.74158 24.4999H13.4083C13.7302 24.4999 13.9916 24.2386 13.9916 23.9166C13.9916 23.5946 13.7302 23.3333 13.4083 23.3333H8.74158H6.99158C6.34818 23.3333 5.82489 22.8101 5.82489 22.1666C5.82489 21.8785 5.93044 21.6025 6.12178 21.389C6.33704 21.1487 6.3166 20.78 6.07687 20.5648C5.83651 20.3495 5.46785 20.3705 5.2532 20.6103C4.86937 21.0384 4.6582 21.5909 4.6582 22.1666C4.6582 23.3695 5.57579 24.3506 6.74597 24.4755C6.53597 24.8255 6.4082 25.2297 6.4082 25.6666C6.4082 26.8695 7.32579 27.8506 8.49597 27.9755C8.28597 28.3255 8.1582 28.7297 8.1582 29.1666C8.1582 30.4535 9.20472 31.4999 10.4915 31.4999H15.7415C16.543 31.4999 17.243 30.8227 17.3008 30.7649L23.7373 24.9123C26.2416 22.4081 26.2416 21.7874 26.2416 21.5832C26.2416 20.8091 26.1465 20.6633 25.4873 20.0041L22.5706 17.0875C22.2434 16.7596 21.9144 16.4756 21.6245 16.2241C20.8253 15.5317 20.4082 15.1444 20.4082 14.5832C20.4082 13.8471 21.0359 12.7708 21.282 12.7545C21.3263 12.7801 25.7422 15.3404 27.0845 16.2352C28.5929 17.2409 30.3249 18.8241 30.3249 22.1666C30.3249 24.6702 28.3561 28.0647 27.0536 30.3105C26.1226 31.9152 25.6752 32.7103 25.6752 33.2499V34.4166C25.6752 34.7385 25.9365 34.9999 26.2585 34.9999C26.5804 34.9999 26.8418 34.7385 26.8418 34.4166V33.2563C26.8657 32.96 27.5015 31.8633 28.0627 30.8961C29.5094 28.4012 31.4915 24.9846 31.4915 22.1666C31.4915 18.2269 29.3454 16.3409 27.7313 15.2646Z" fill="white"/>
</svg>
