<svg width="33" height="33" viewBox="0 0 33 33" fill="none" xmlns="http://www.w3.org/2000/svg">
<path d="M12.65 26.4H15.95C16.2542 26.4 16.5 26.1536 16.5 25.85C16.5 25.5465 16.2542 25.3 15.95 25.3H12.65C12.3459 25.3 12.1 25.5465 12.1 25.85C12.1 26.1536 12.3459 26.4 12.65 26.4Z" fill="white"/>
<path d="M12.65 30.8H17.1787C17.4828 30.8 17.7287 30.5536 17.7287 30.2501C17.7287 29.9465 17.4828 29.7001 17.1787 29.7001H12.65C12.3459 29.7001 12.1 29.9465 12.1 30.2501C12.1 30.5536 12.3459 30.8 12.65 30.8Z" fill="white"/>
<path d="M7.68842 24.2016C7.82977 24.2016 7.97111 24.1478 8.07836 24.0394C8.29286 23.8238 8.29177 23.4756 8.07668 23.2617C3.70812 18.9173 1.10002 13.9221 1.10002 9.9C1.10002 5.04791 5.0479 1.10002 9.9 1.10002C11.5528 1.10002 13.1642 1.56093 14.5596 2.43323C14.817 2.59437 15.1569 2.51573 15.3175 2.25831C15.4786 2.00088 15.4 1.66154 15.1426 1.5004C13.5723 0.518654 11.7595 0 9.9 0C4.44127 0 0 4.44127 0 9.9C0 14.2087 2.72907 19.4953 7.30067 24.0416C7.4085 24.1483 7.54875 24.2016 7.68842 24.2016Z" fill="white"/>
<path d="M14.3506 6.55108C14.6267 6.67593 14.9528 6.55327 15.0783 6.27664C16.5011 3.13171 19.6498 1.10002 23.1 1.10002C27.9521 1.10002 31.9 5.0479 31.9 9.9C31.9 12.3744 31.0128 15.241 29.6922 17.033C29.5118 17.2777 29.5641 17.622 29.8088 17.8024C29.9067 17.8745 30.0211 17.9091 30.1344 17.9091C30.3033 17.9091 30.4699 17.8321 30.5778 17.6857C32.0265 15.7195 33 12.5906 33 9.9C33 4.44127 28.5587 0 23.1 0C19.2186 0 15.6766 2.28583 14.0761 5.8234C13.9507 6.10004 14.0739 6.42617 14.3506 6.55108Z" fill="white"/>
<path d="M8.25 31.9H0.549978C0.245824 31.9 0 32.1464 0 32.45C0 32.7535 0.245824 33 0.549978 33H8.25C8.55415 33 8.79998 32.7536 8.79998 32.45C8.79998 32.1465 8.55415 31.9 8.25 31.9Z" fill="white"/>
<path d="M24.8996 3.54807C24.6092 3.46667 24.3028 3.63495 24.2209 3.92757C24.1384 4.22019 24.3078 4.52434 24.6004 4.60684C26.4231 5.12221 27.8768 6.57531 28.3926 8.39798C28.4608 8.64 28.6814 8.79836 28.9212 8.79836C28.9713 8.79836 29.0219 8.7912 29.0714 8.7769C29.364 8.6944 29.5334 8.39024 29.4509 8.0982C28.8316 5.91086 27.0875 4.16734 24.8996 3.54807Z" fill="white"/>
<path d="M12.65 28.6H16.225C16.5292 28.6 16.775 28.3536 16.775 28.05C16.775 27.7464 16.5292 27.5 16.225 27.5H12.65C12.3459 27.5 12.1 27.7464 12.1 28.05C12.1 28.3536 12.3459 28.6 12.65 28.6Z" fill="white"/>
<path d="M8.25 29.7H0.549978C0.245824 29.7 0 29.9464 0 30.25C0 30.5536 0.245824 30.8 0.549978 30.8H8.25C8.55415 30.8 8.79998 30.5536 8.79998 30.25C8.79998 29.9464 8.55415 29.7 8.25 29.7Z" fill="white"/>
<path d="M25.3 22.55C25.9066 22.55 26.4 23.0433 26.4 23.65C26.4 23.9536 26.6458 24.2 26.95 24.2C27.2541 24.2 27.5 23.9536 27.5 23.65C27.5 22.6281 26.7965 21.774 25.85 21.5281V21.45C25.85 21.1464 25.6041 20.9 25.3 20.9C24.9958 20.9 24.75 21.1464 24.75 21.45V21.5281C23.8034 21.7739 23.1 22.6281 23.1 23.65C23.1 24.8634 24.0867 25.85 25.3 25.85C25.9066 25.85 26.4 26.3433 26.4 26.95C26.4 27.5567 25.9067 28.0501 25.3 28.0501C24.6934 28.0501 24.2 27.5567 24.2 26.95C24.2 26.6465 23.9541 26.4001 23.65 26.4001C23.3458 26.4001 23.1 26.6465 23.1 26.95C23.1 27.9719 23.8034 28.8261 24.75 29.072V29.1501C24.75 29.4537 24.9958 29.7001 25.3 29.7001C25.6041 29.7001 25.85 29.4537 25.85 29.1501V29.072C26.7965 28.8261 27.5 27.9719 27.5 26.95C27.5 25.7367 26.5132 24.7501 25.3 24.7501C24.6934 24.7501 24.2 24.2567 24.2 23.65C24.2 23.0433 24.6934 22.55 25.3 22.55Z" fill="white"/>
<path d="M25.3 17.6C21.054 17.6 17.6 21.054 17.6 25.3001C17.6 29.5461 21.054 33 25.3 33C29.546 33 33 29.546 33 25.3C33 21.054 29.546 17.6 25.3 17.6ZM25.3 31.9C21.6607 31.9 18.7 28.9393 18.7 25.3C18.7 21.6606 21.6607 18.7 25.3 18.7C28.9393 18.7 31.9 21.6606 31.9 25.3C31.9 28.9393 28.9393 31.9 25.3 31.9Z" fill="white"/>
<path d="M19.25 31.9H12.65C12.3459 31.9 12.1 32.1464 12.1 32.45C12.1 32.7535 12.3459 32.9999 12.65 32.9999H19.25C19.5542 32.9999 19.8 32.7535 19.8 32.45C19.8 32.1464 19.5542 31.9 19.25 31.9Z" fill="white"/>
<path d="M10.45 25.3C10.1458 25.3 9.90002 25.5464 9.90002 25.85V32.45C9.90002 32.7535 10.1458 32.9999 10.45 32.9999C10.7542 32.9999 11 32.7535 11 32.45V25.85C11 25.5464 10.7542 25.3 10.45 25.3Z" fill="white"/>
<path d="M8.25 25.3H0.549978C0.245824 25.3 0 25.5464 0 25.85C0 26.1535 0.245824 26.3999 0.549978 26.3999H8.25C8.55415 26.3999 8.79998 26.1535 8.79998 25.85C8.79998 25.5464 8.55415 25.3 8.25 25.3Z" fill="white"/>
<path d="M8.25 27.5H0.549978C0.245824 27.5 0 27.7464 0 28.05C0 28.3536 0.245824 28.6 0.549978 28.6H8.25C8.55415 28.6 8.79998 28.3536 8.79998 28.05C8.79998 27.7464 8.55415 27.5 8.25 27.5Z" fill="white"/>
</svg>
