<svg width="35" height="35" viewBox="0 0 35 35" fill="none" xmlns="http://www.w3.org/2000/svg">
<g clip-path="url(#clip0_11_139)">
<path d="M20.3557 30.8293V17.52H32.0794V35.0002H2.92064V17.5199H14.6443V30.8292H20.3557V30.8293ZM33.883 15.854H1.11697V8.83987H5.34278C4.9396 8.00625 4.72415 7.01687 4.72415 5.89639C4.72415 2.25953 6.98337 0 10.6202 0C14.1327 0 16.3048 3.0059 17.5509 5.72282C17.6309 5.55366 17.7138 5.38374 17.8008 5.21366C19.9974 0.904573 22.5912 0 24.3801 0C28.0168 0 30.2758 2.25953 30.2758 5.89655C30.2758 7.01702 30.0607 8.0064 29.6574 8.84002H33.883V15.854ZM15.5204 8.78704C14.7798 6.54441 13.2016 3.0059 10.6202 3.0059C9.90553 3.0059 7.73051 3.0059 7.73051 5.89639C7.73051 8.78689 9.90553 8.78689 10.6202 8.78689H15.5204V8.78704ZM27.2699 5.89655C27.2699 3.00606 25.0949 3.00606 24.3801 3.00606C22.124 3.00606 20.4152 6.34328 19.5303 8.78719H24.3801C25.0948 8.78704 27.2699 8.78704 27.2699 5.89655Z" fill="white"/>
</g>
<defs>
<clipPath id="clip0_11_139">
<rect width="35" height="35" fill="white"/>
</clipPath>
</defs>
</svg>
