<svg width="38" height="38" viewBox="0 0 38 38" fill="none" xmlns="http://www.w3.org/2000/svg">
<path d="M32.2046 28.0797C33.8615 25.6729 34.8291 22.8591 35.0029 19.9423C35.1766 17.0255 34.5499 14.1167 33.1904 11.5303C31.8309 8.94382 29.7904 6.77812 27.2894 5.26724C24.7884 3.75636 21.922 2.95776 19 2.95776C16.078 2.95776 13.2116 3.75636 10.7106 5.26724C8.20959 6.77812 6.16907 8.94382 4.80958 11.5303C3.4501 14.1167 2.82337 17.0255 2.99712 19.9423C3.17088 22.8591 4.13851 25.6729 5.79545 28.0797C5.81849 28.1186 5.84154 28.1575 5.86792 28.1952C5.88633 28.2214 5.90757 28.2444 5.92707 28.2694C7.40691 30.3594 9.3663 32.0642 11.6409 33.2407C13.9156 34.4172 16.4391 35.0313 19 35.0313C21.5609 35.0313 24.0845 34.4172 26.3591 33.2407C28.6337 32.0642 30.5931 30.3594 32.0729 28.2694C32.0924 28.2444 32.1137 28.2214 32.1321 28.1952C32.1585 28.1575 32.1815 28.1186 32.2046 28.0797ZM31.4688 19C31.4701 20.9518 31.0103 22.8762 30.1267 24.6166L20.7813 18.0727V6.66052C23.747 7.09232 26.4586 8.57644 28.4207 10.8419C30.3829 13.1073 31.4647 16.003 31.4688 19ZM17.2188 6.66052V18.0727L7.87328 24.6166C6.9801 22.8514 6.52013 20.8989 6.53146 18.9206C6.54278 16.9424 7.02506 14.9953 7.93839 13.2404C8.85171 11.4856 10.1698 9.97351 11.7836 8.8293C13.3974 7.68508 15.2606 6.94165 17.2188 6.66052ZM9.92017 27.5323L17.2188 22.4218V31.3395C14.4246 30.9348 11.8509 29.5923 9.92017 27.5323ZM20.7813 31.3395V22.4218L28.0798 27.5323C26.1491 29.5923 23.5755 30.9348 20.7813 31.3395Z" fill="white"/>
</svg>
