<svg width="1332" height="277" viewBox="0 0 1332 277" fill="none" xmlns="http://www.w3.org/2000/svg">
<g clip-path="url(#clip0_18_235)">
<path d="M215.732 218.416C186.759 256.027 150.132 275.597 105.852 277.128C61.572 278.659 31.232 259.853 14.832 220.712C-1.56801 181.571 -0.529348 144.288 17.948 108.864C36.4253 73.4399 69.3347 50.2066 116.676 39.1639C164.017 28.1213 199.605 45.8333 223.44 92.2999C247.275 138.767 244.705 180.805 215.732 218.416Z" stroke="#0B6051" stroke-width="6"/>
</g>
<g clip-path="url(#clip1_18_235)">
<path d="M1051.05 200.42C1044.14 238.033 1023.45 267.76 988.992 289.6C954.533 311.44 919.347 314.655 883.432 299.246C847.517 283.837 822.523 261.329 808.448 231.724C794.373 202.119 786.79 172.695 785.698 143.454C784.606 114.213 793.888 88.7932 813.544 67.1958C833.2 45.5985 857.163 32.3125 885.434 27.3378C913.705 22.3632 943.31 24.5472 974.25 33.8898C1005.19 43.2325 1027.45 63.9198 1041.04 95.9518C1054.63 127.984 1057.97 162.807 1051.05 200.42Z" stroke="#0B6051" stroke-width="6"/>
</g>
<g clip-path="url(#clip2_18_235)">
<path d="M638.43 43.062C632.122 5.10331 607.72 -21.6227 565.224 -37.116C522.728 -52.6094 484.05 -44.9734 449.19 -14.208C414.33 16.5573 400.054 53.0773 406.362 95.352C412.67 137.627 431.041 171.435 461.474 196.778C491.907 222.121 522.064 224.611 551.944 204.248C581.824 183.885 605.285 161.42 622.328 136.852C639.371 112.284 644.738 81.0206 638.43 43.062Z" stroke="#0B6051" stroke-width="6"/>
</g>
<g clip-path="url(#clip3_18_235)">
<path d="M1568.3 320.125C1555.83 374.208 1523.48 408.858 1471.23 424.075C1418.98 439.292 1367.55 445.525 1316.95 442.775C1266.35 440.025 1219.05 420.317 1175.05 383.65C1131.05 346.983 1117.67 301.883 1134.9 248.35C1152.13 194.817 1175.51 149.075 1205.02 111.125C1234.54 73.175 1272.58 53.7417 1319.15 52.825C1365.72 51.9084 1407.61 62.45 1444.83 84.45C1482.04 106.45 1515.04 137.708 1543.83 178.225C1572.61 218.742 1580.77 266.042 1568.3 320.125Z" stroke="#0B6051" stroke-width="6"/>
</g>
<defs>
<clipPath id="clip0_18_235">
<rect width="243" height="245" fill="white" transform="translate(0 32)"/>
</clipPath>
<clipPath id="clip1_18_235">
<rect width="276" height="256" fill="white" transform="translate(782 21)"/>
</clipPath>
<clipPath id="clip2_18_235">
<rect width="243" height="221" fill="white" transform="matrix(1 0 0 -1 401 221)"/>
</clipPath>
<clipPath id="clip3_18_235">
<rect width="208" height="228" fill="white" transform="translate(1124 49)"/>
</clipPath>
</defs>
</svg>
