<svg width="683" height="384" viewBox="0 0 683 384" fill="none" xmlns="http://www.w3.org/2000/svg">
<g clip-path="url(#clip0_22_328)">
<path d="M275.579 595.544C206.067 685.838 118.193 732.823 11.9577 736.498C-94.2779 740.173 -167.069 695.025 -206.415 601.056C-245.762 507.086 -243.27 417.579 -198.94 332.533C-154.609 247.488 -75.6539 191.71 37.9264 165.199C151.507 138.688 236.889 181.211 294.072 292.767C351.256 404.323 345.091 505.249 275.579 595.544Z" stroke="#0B6051" stroke-width="6"/>
</g>
<g clip-path="url(#clip1_22_328)">
<path d="M900.703 316.921C882.246 205.976 810.847 127.861 686.507 82.5766C562.167 37.2926 448.998 59.6111 347 149.532C245.003 239.453 203.232 346.194 221.689 469.755C240.146 593.316 293.897 692.132 382.942 766.204C471.988 840.275 560.224 847.553 647.651 788.037C735.078 728.521 803.724 662.859 853.589 591.052C903.455 519.244 919.159 427.867 900.703 316.921Z" stroke="#0B6051" stroke-width="6"/>
</g>
<defs>
<clipPath id="clip0_22_328">
<rect width="341" height="310.91" fill="white" transform="translate(0 73.0898)"/>
</clipPath>
<clipPath id="clip1_22_328">
<rect width="477" height="383.473" fill="white" transform="matrix(1 0 0 -1 206 384)"/>
</clipPath>
</defs>
</svg>
