<svg width="16" height="16" viewBox="0 0 16 16" fill="none" xmlns="http://www.w3.org/2000/svg">
<path d="M4.64601 4.64604C4.69245 4.59948 4.74763 4.56253 4.80837 4.53733C4.86912 4.51212 4.93424 4.49915 5.00001 4.49915C5.06578 4.49915 5.1309 4.51212 5.19164 4.53733C5.25239 4.56253 5.30756 4.59948 5.35401 4.64604L8.00001 7.29304L10.646 4.64604C10.6925 4.59955 10.7477 4.56267 10.8084 4.53752C10.8692 4.51236 10.9343 4.49941 11 4.49941C11.0658 4.49941 11.1309 4.51236 11.1916 4.53752C11.2523 4.56267 11.3075 4.59955 11.354 4.64604C11.4005 4.69253 11.4374 4.74772 11.4625 4.80846C11.4877 4.86919 11.5006 4.9343 11.5006 5.00004C11.5006 5.06578 11.4877 5.13088 11.4625 5.19162C11.4374 5.25236 11.4005 5.30755 11.354 5.35404L8.70701 8.00004L11.354 10.646C11.4005 10.6925 11.4374 10.7477 11.4625 10.8085C11.4877 10.8692 11.5006 10.9343 11.5006 11C11.5006 11.0658 11.4877 11.1309 11.4625 11.1916C11.4374 11.2524 11.4005 11.3076 11.354 11.354C11.3075 11.4005 11.2523 11.4374 11.1916 11.4626C11.1309 11.4877 11.0658 11.5007 11 11.5007C10.9343 11.5007 10.8692 11.4877 10.8084 11.4626C10.7477 11.4374 10.6925 11.4005 10.646 11.354L8.00001 8.70704L5.35401 11.354C5.30752 11.4005 5.25233 11.4374 5.19159 11.4626C5.13085 11.4877 5.06575 11.5007 5.00001 11.5007C4.93426 11.5007 4.86916 11.4877 4.80842 11.4626C4.74769 11.4374 4.6925 11.4005 4.64601 11.354C4.59952 11.3076 4.56264 11.2524 4.53749 11.1916C4.51233 11.1309 4.49938 11.0658 4.49938 11C4.49938 10.9343 4.51233 10.8692 4.53749 10.8085C4.56264 10.7477 4.59952 10.6925 4.64601 10.646L7.29301 8.00004L4.64601 5.35404C4.59945 5.30759 4.5625 5.25242 4.5373 5.19167C4.51209 5.13093 4.49911 5.06581 4.49911 5.00004C4.49911 4.93427 4.51209 4.86915 4.5373 4.80841C4.5625 4.74766 4.59945 4.69248 4.64601 4.64604Z" fill="black"/>
</svg>
